<?xml version="1.0" encoding="UTF-8"?>
<svg width="76px" height="76px" viewBox="0 0 76 76" version="1.1" xmlns="http://www.w3.org/2000/svg" xmlns:xlink="http://www.w3.org/1999/xlink">
    <!-- Generator: Sketch 46.2 (44496) - http://www.bohemiancoding.com/sketch -->
    <title>Artboard 2</title>
    <desc>Created with Sketch.</desc>
    <defs></defs>
    <g id="Page-1" stroke="none" stroke-width="1" fill="none" fill-rule="evenodd">
        <g id="Artboard-2" fill="#000000">
            <g id="Group-10-Copy" transform="translate(18.000000, 10.000000)">
                <path d="M20.6538209,28.3180446 C20.6538209,24.694752 20.0740645,22.3033789 17.755039,22.3033789 C15.5809526,22.3033789 13.6242748,25.7817398 13.4793357,29.7673616 L13.4793357,54.9130122 L0,54.9130122 L0,0 L3.84088599,0 C11.538606,0.14737318 13.4793357,4.61006885 13.4793357,10.4753415 L13.4793357,24.3324227 C15.3635439,19.767074 20.2914731,17.5930985 25.2194023,17.5930985 C31.8866006,17.5930985 34.6404434,21.723652 34.6404434,27.8107836 C34.6404434,34.8399712 33.9882175,42.9561467 33.9882175,47.8113587 C33.9882175,50.9998562 35.0027912,52.6665708 36.9594689,52.6665708 C39.5683726,52.6665708 41.4525808,50.4040259 43.0469109,43.5922358 C43.1504428,43.3235363 43.3510062,43.2235227 43.6486011,43.2921949 C44.0949935,43.3952033 43.989015,43.8096334 43.989015,43.8096334 C41.6699895,54.3171819 38.9161467,56 31.3068443,56 C23.4801332,56 20.2190036,50.9998562 20.2190036,44.767793 C20.2190036,39.3328541 20.6538209,34.6225737 20.6538209,28.3180446 Z" id="h"></path>
            </g>
        </g>
    </g>
</svg>