<?xml version="1.0" encoding="UTF-8"?>
<svg width="50px" height="50px" viewBox="0 0 50 50" version="1.1" xmlns="http://www.w3.org/2000/svg" xmlns:xlink="http://www.w3.org/1999/xlink">
    <!-- Generator: Sketch 46.2 (44496) - http://www.bohemiancoding.com/sketch -->
    <title>Group 10</title>
    <desc>Created with Sketch.</desc>
    <defs></defs>
    <g id="Page-1" stroke="none" stroke-width="1" fill="none" fill-rule="evenodd">
        <g id="Desktop-Copy-3" transform="translate(-24.000000, -24.000000)">
            <g id="Group-10" transform="translate(24.000000, 24.000000)">
                <path d="M25.3269104,25.1590223 C25.3269104,23.347376 25.0370322,22.1516894 23.8775195,22.1516894 C22.7904763,22.1516894 21.8121374,23.8908699 21.7396679,25.8836808 L21.7396679,38.4565061 L15,38.4565061 L15,11 L16.920443,11 C20.769303,11.0736866 21.7396679,13.3050344 21.7396679,16.2376707 L21.7396679,23.1662114 C22.681772,20.883537 25.1457366,19.7965492 27.6097012,19.7965492 C30.9433003,19.7965492 32.3202217,21.861826 32.3202217,24.9053918 C32.3202217,28.4199856 31.9941088,32.4780733 31.9941088,34.9056794 C31.9941088,36.4999281 32.5013956,37.3332854 33.4797345,37.3332854 C34.7841863,37.3332854 35.7262904,36.2020129 36.5234554,32.7961179 C36.5752214,32.6617681 36.6755031,32.6117613 36.8243006,32.6460975 C37.0474968,32.6976016 36.9945075,32.9048167 36.9945075,32.9048167 C35.8349947,38.1585909 34.4580733,39 30.6534221,39 C26.7400666,39 25.1095018,36.4999281 25.1095018,33.3838965 C25.1095018,30.666427 25.3269104,28.3112868 25.3269104,25.1590223 Z" id="h" fill="#FFFFFF"></path>
                <circle id="Oval" stroke="#FFFFFF" cx="25" cy="25" r="24.5"></circle>
            </g>
        </g>
    </g>
</svg>