<?xml version="1.0" encoding="UTF-8"?>
<svg width="358px" height="32px" viewBox="0 0 358 32" version="1.1" xmlns="http://www.w3.org/2000/svg" xmlns:xlink="http://www.w3.org/1999/xlink">
    <!-- Generator: Sketch 46.2 (44496) - http://www.bohemiancoding.com/sketch -->
    <title>Digital designer &amp; F</title>
    <desc>Created with Sketch.</desc>
    <defs>
        <path d="M159.792,494.416 L163.152,494.416 C164.448006,494.416 165.571995,494.220002 166.524,493.828 C167.476005,493.435998 168.267997,492.916003 168.9,492.268 C169.532003,491.619997 169.999998,490.884004 170.304,490.06 C170.608002,489.235996 170.76,488.384004 170.76,487.504 C170.76,486.623996 170.608002,485.772004 170.304,484.948 C169.999998,484.123996 169.532003,483.388003 168.9,482.74 C168.267997,482.091997 167.476005,481.572002 166.524,481.18 C165.571995,480.787998 164.448006,480.592 163.152,480.592 L159.792,480.592 L159.792,494.416 Z M158.064,479.008 L163.704,479.008 C164.760005,479.008 165.819995,479.183998 166.884,479.536 C167.948005,479.888002 168.907996,480.419996 169.764,481.132 C170.620004,481.844004 171.311997,482.731995 171.84,483.796 C172.368003,484.860005 172.632,486.095993 172.632,487.504 C172.632,488.928007 172.368003,490.167995 171.84,491.224 C171.311997,492.280005 170.620004,493.163996 169.764,493.876 C168.907996,494.588004 167.948005,495.119998 166.884,495.472 C165.819995,495.824002 164.760005,496 163.704,496 L158.064,496 L158.064,479.008 Z M177.816,480.448 C177.816,480.784002 177.696001,481.059999 177.456,481.276 C177.215999,481.492001 176.952001,481.6 176.664,481.6 C176.375999,481.6 176.112001,481.492001 175.872,481.276 C175.631999,481.059999 175.512,480.784002 175.512,480.448 C175.512,480.111998 175.631999,479.836001 175.872,479.62 C176.112001,479.403999 176.375999,479.296 176.664,479.296 C176.952001,479.296 177.215999,479.403999 177.456,479.62 C177.696001,479.836001 177.816,480.111998 177.816,480.448 Z M177.456,496 L175.872,496 L175.872,484.768 L177.456,484.768 L177.456,496 Z M182.424,490.24 C182.424,490.832003 182.531999,491.387997 182.748,491.908 C182.964001,492.428003 183.259998,492.883998 183.636,493.276 C184.012002,493.668002 184.451997,493.979999 184.956,494.212 C185.460003,494.444001 186.007997,494.56 186.6,494.56 C187.176003,494.56 187.723997,494.456001 188.244,494.248 C188.764003,494.039999 189.223998,493.748002 189.624,493.372 C190.024002,492.995998 190.331999,492.544003 190.548,492.016 C190.764001,491.487997 190.864,490.896003 190.848,490.24 C190.848,489.647997 190.752001,489.092003 190.56,488.572 C190.367999,488.051997 190.088002,487.596002 189.72,487.204 C189.351998,486.811998 188.904003,486.500001 188.376,486.268 C187.847997,486.035999 187.256003,485.92 186.6,485.92 C186.007997,485.92 185.460003,486.035999 184.956,486.268 C184.451997,486.500001 184.012002,486.811998 183.636,487.204 C183.259998,487.596002 182.964001,488.051997 182.748,488.572 C182.531999,489.092003 182.424,489.647997 182.424,490.24 Z M182.136,498.256 C182.600002,498.880003 183.203996,499.379998 183.948,499.756 C184.692004,500.132002 185.519995,500.32 186.432,500.32 C187.232004,500.32 187.911997,500.204001 188.472,499.972 C189.032003,499.739999 189.483998,499.424002 189.828,499.024 C190.172002,498.623998 190.419999,498.156003 190.572,497.62 C190.724001,497.083997 190.8,496.512003 190.8,495.904 L190.8,493.888 L190.752,493.888 C190.239997,494.656004 189.616004,495.199998 188.88,495.52 C188.143996,495.840002 187.368004,496 186.552,496 C185.735996,496 184.972004,495.856001 184.26,495.568 C183.547996,495.279999 182.928003,494.884003 182.4,494.38 C181.871997,493.875997 181.456002,493.272004 181.152,492.568 C180.847998,491.863996 180.696,491.104004 180.696,490.288 C180.696,489.471996 180.839999,488.712004 181.128,488.008 C181.416001,487.303996 181.811997,486.688003 182.316,486.16 C182.820003,485.631997 183.419997,485.220001 184.116,484.924 C184.812003,484.627999 185.575996,484.48 186.408,484.48 C186.744002,484.48 187.099998,484.512 187.476,484.576 C187.852002,484.64 188.227998,484.751999 188.604,484.912 C188.980002,485.072001 189.351998,485.291999 189.72,485.572 C190.088002,485.852001 190.431998,486.207998 190.752,486.64 L190.8,486.64 L190.8,484.768 L192.384,484.768 L192.384,495.904 C192.384,496.512003 192.308001,497.159997 192.156,497.848 C192.003999,498.536003 191.708002,499.167997 191.268,499.744 C190.827998,500.320003 190.216004,500.799998 189.432,501.184 C188.647996,501.568002 187.624006,501.76 186.36,501.76 C185.239994,501.76 184.240004,501.576002 183.36,501.208 C182.479996,500.839998 181.680004,500.272004 180.96,499.504 L182.136,498.256 Z M198.24,480.448 C198.24,480.784002 198.120001,481.059999 197.88,481.276 C197.639999,481.492001 197.376001,481.6 197.088,481.6 C196.799999,481.6 196.536001,481.492001 196.296,481.276 C196.055999,481.059999 195.936,480.784002 195.936,480.448 C195.936,480.111998 196.055999,479.836001 196.296,479.62 C196.536001,479.403999 196.799999,479.296 197.088,479.296 C197.376001,479.296 197.639999,479.403999 197.88,479.62 C198.120001,479.836001 198.24,480.111998 198.24,480.448 Z M197.88,496 L196.296,496 L196.296,484.768 L197.88,484.768 L197.88,496 Z M207.504,486.208 L204.264,486.208 L204.264,492.832 C204.264,493.248002 204.304,493.587999 204.384,493.852 C204.464,494.116001 204.575999,494.319999 204.72,494.464 C204.864001,494.608001 205.035999,494.708 205.236,494.764 C205.436001,494.82 205.655999,494.848 205.896,494.848 C206.168001,494.848 206.447999,494.808 206.736,494.728 C207.024001,494.648 207.287999,494.544001 207.528,494.416 L207.6,495.88 C207.007997,496.152001 206.296004,496.288 205.464,496.288 C205.159998,496.288 204.844002,496.248 204.516,496.168 C204.187998,496.088 203.888001,495.936001 203.616,495.712 C203.343999,495.487999 203.120001,495.184002 202.944,494.8 C202.767999,494.415998 202.68,493.912003 202.68,493.288 L202.68,486.208 L200.304,486.208 L200.304,484.768 L202.68,484.768 L202.68,481.6 L204.264,481.6 L204.264,484.768 L207.504,484.768 L207.504,486.208 Z M216.048,490.408 C215.647998,490.408 215.148003,490.428 214.548,490.468 C213.947997,490.508 213.372003,490.603999 212.82,490.756 C212.267997,490.908001 211.796002,491.143998 211.404,491.464 C211.011998,491.784002 210.816,492.223997 210.816,492.784 C210.816,493.152002 210.891999,493.467999 211.044,493.732 C211.196001,493.996001 211.399999,494.211999 211.656,494.38 C211.912001,494.548001 212.195998,494.668 212.508,494.74 C212.820002,494.812 213.135998,494.848 213.456,494.848 C214.032003,494.848 214.531998,494.752001 214.956,494.56 C215.380002,494.367999 215.735999,494.108002 216.024,493.78 C216.312001,493.451998 216.523999,493.068002 216.66,492.628 C216.796001,492.187998 216.864,491.720002 216.864,491.224 L216.864,490.408 L216.048,490.408 Z M216.864,489.112 L216.864,488.824 C216.864,486.88799 215.90401,485.92 213.984,485.92 C212.671993,485.92 211.528005,486.359996 210.552,487.24 L209.592,486.112 C210.648005,485.023995 212.231989,484.48 214.344,484.48 C214.888003,484.48 215.411997,484.559999 215.916,484.72 C216.420003,484.880001 216.855998,485.123998 217.224,485.452 C217.592002,485.780002 217.887999,486.191998 218.112,486.688 C218.336001,487.184002 218.448,487.775997 218.448,488.464 L218.448,493.48 C218.448,493.912002 218.468,494.363998 218.508,494.836 C218.548,495.308002 218.592,495.695998 218.64,496 L217.104,496 C217.056,495.727999 217.02,495.432002 216.996,495.112 C216.972,494.791998 216.96,494.480002 216.96,494.176 L216.912,494.176 C216.447998,494.928004 215.900003,495.467998 215.268,495.796 C214.635997,496.124002 213.864005,496.288 212.952,496.288 C212.455998,496.288 211.976002,496.220001 211.512,496.084 C211.047998,495.947999 210.636002,495.740001 210.276,495.46 C209.915998,495.179999 209.628001,494.836002 209.412,494.428 C209.195999,494.019998 209.088,493.544003 209.088,493 C209.088,492.087995 209.323998,491.372003 209.796,490.852 C210.268002,490.331997 210.859996,489.944001 211.572,489.688 C212.284004,489.431999 213.043996,489.272 213.852,489.208 C214.660004,489.144 215.399997,489.112 216.072,489.112 L216.864,489.112 Z M224.064,496 L222.48,496 L222.48,477.856 L224.064,477.856 L224.064,496 Z M235.512,490.384 C235.512,491.008003 235.611999,491.591997 235.812,492.136 C236.012001,492.680003 236.295998,493.151998 236.664,493.552 C237.032002,493.952002 237.475997,494.267999 237.996,494.5 C238.516003,494.732001 239.103997,494.848 239.76,494.848 C240.400003,494.848 240.995997,494.732001 241.548,494.5 C242.100003,494.267999 242.575998,493.952002 242.976,493.552 C243.376002,493.151998 243.687999,492.680003 243.912,492.136 C244.136001,491.591997 244.248,491.008003 244.248,490.384 C244.248,489.759997 244.136001,489.176003 243.912,488.632 C243.687999,488.087997 243.376002,487.616002 242.976,487.216 C242.575998,486.815998 242.100003,486.500001 241.548,486.268 C240.995997,486.035999 240.400003,485.92 239.76,485.92 C239.103997,485.92 238.516003,486.035999 237.996,486.268 C237.475997,486.500001 237.032002,486.815998 236.664,487.216 C236.295998,487.616002 236.012001,488.087997 235.812,488.632 C235.611999,489.176003 235.512,489.759997 235.512,490.384 Z M245.76,496 L244.176,496 L244.176,494.128 L244.128,494.128 C243.871999,494.512002 243.568002,494.839999 243.216,495.112 C242.863998,495.384001 242.496002,495.607999 242.112,495.784 C241.727998,495.960001 241.332002,496.088 240.924,496.168 C240.515998,496.248 240.128002,496.288 239.76,496.288 C238.879996,496.288 238.076004,496.140001 237.348,495.844 C236.619996,495.547999 235.992003,495.136003 235.464,494.608 C234.935997,494.079997 234.524001,493.456004 234.228,492.736 C233.931999,492.015996 233.784,491.232004 233.784,490.384 C233.784,489.535996 233.931999,488.752004 234.228,488.032 C234.524001,487.311996 234.935997,486.688003 235.464,486.16 C235.992003,485.631997 236.619996,485.220001 237.348,484.924 C238.076004,484.627999 238.879996,484.48 239.76,484.48 C240.128002,484.48 240.515998,484.52 240.924,484.6 C241.332002,484.68 241.727998,484.807999 242.112,484.984 C242.496002,485.160001 242.863998,485.383999 243.216,485.656 C243.568002,485.928001 243.871999,486.255998 244.128,486.64 L244.176,486.64 L244.176,477.856 L245.76,477.856 L245.76,496 Z M257.952,489.52 C257.952,488.447995 257.632003,487.580003 256.992,486.916 C256.351997,486.251997 255.456006,485.92 254.304,485.92 C253.791997,485.92 253.296002,486.019999 252.816,486.22 C252.335998,486.420001 251.916002,486.687998 251.556,487.024 C251.195998,487.360002 250.908001,487.743998 250.692,488.176 C250.475999,488.608002 250.368,489.055998 250.368,489.52 L257.952,489.52 Z M250.32,490.816 C250.368,491.376003 250.503999,491.903998 250.728,492.4 C250.952001,492.896002 251.247998,493.323998 251.616,493.684 C251.984002,494.044002 252.407998,494.327999 252.888,494.536 C253.368002,494.744001 253.887997,494.848 254.448,494.848 C255.296004,494.848 256.027997,494.652002 256.644,494.26 C257.260003,493.867998 257.727998,493.416003 258.048,492.904 L259.272,493.912 C258.599997,494.760004 257.860004,495.367998 257.052,495.736 C256.243996,496.104002 255.376005,496.288 254.448,496.288 C253.615996,496.288 252.844004,496.140001 252.132,495.844 C251.419996,495.547999 250.808003,495.136003 250.296,494.608 C249.783997,494.079997 249.380001,493.456004 249.084,492.736 C248.787999,492.015996 248.64,491.232004 248.64,490.384 C248.64,489.535996 248.783999,488.752004 249.072,488.032 C249.360001,487.311996 249.759997,486.688003 250.272,486.16 C250.784003,485.631997 251.383997,485.220001 252.072,484.924 C252.760003,484.627999 253.503996,484.48 254.304,484.48 C255.152004,484.48 255.911997,484.631998 256.584,484.936 C257.256003,485.240002 257.819998,485.643997 258.276,486.148 C258.732002,486.652003 259.079999,487.243997 259.32,487.924 C259.560001,488.604003 259.68,489.327996 259.68,490.096 L259.68,490.816 L250.32,490.816 Z M268.512,487.432 C268.271999,486.967998 267.952002,486.600001 267.552,486.328 C267.151998,486.055999 266.664003,485.92 266.088,485.92 C265.815999,485.92 265.540001,485.952 265.26,486.016 C264.979999,486.08 264.728001,486.179999 264.504,486.316 C264.279999,486.452001 264.100001,486.623999 263.964,486.832 C263.827999,487.040001 263.76,487.295998 263.76,487.6 C263.76,488.128003 263.943998,488.511999 264.312,488.752 C264.680002,488.992001 265.231996,489.199999 265.968,489.376 L267.576,489.76 C268.360004,489.936001 269.011997,490.291997 269.532,490.828 C270.052003,491.364003 270.312,492.031996 270.312,492.832 C270.312,493.440003 270.188001,493.963998 269.94,494.404 C269.691999,494.844002 269.364002,495.203999 268.956,495.484 C268.547998,495.764001 268.080003,495.967999 267.552,496.096 C267.023997,496.224001 266.488003,496.288 265.944,496.288 C265.079996,496.288 264.276004,496.124002 263.532,495.796 C262.787996,495.467998 262.152003,494.904004 261.624,494.104 L262.992,493.168 C263.312002,493.680003 263.715998,494.087998 264.204,494.392 C264.692002,494.696002 265.271997,494.848 265.944,494.848 C266.264002,494.848 266.583998,494.812 266.904,494.74 C267.224002,494.668 267.507999,494.556001 267.756,494.404 C268.004001,494.251999 268.203999,494.056001 268.356,493.816 C268.508001,493.575999 268.584,493.296002 268.584,492.976 C268.584,492.415997 268.376002,492.012001 267.96,491.764 C267.543998,491.515999 267.040003,491.320001 266.448,491.176 L264.912,490.816 C264.719999,490.768 264.460002,490.688001 264.132,490.576 C263.803998,490.463999 263.484002,490.296001 263.172,490.072 C262.859998,489.847999 262.592001,489.556002 262.368,489.196 C262.143999,488.835998 262.032,488.392003 262.032,487.864 C262.032,487.287997 262.147999,486.784002 262.38,486.352 C262.612001,485.919998 262.923998,485.568001 263.316,485.296 C263.708002,485.023999 264.151998,484.820001 264.648,484.684 C265.144002,484.547999 265.655997,484.48 266.184,484.48 C266.968004,484.48 267.695997,484.631998 268.368,484.936 C269.040003,485.240002 269.559998,485.759996 269.928,486.496 L268.512,487.432 Z M275.088,480.448 C275.088,480.784002 274.968001,481.059999 274.728,481.276 C274.487999,481.492001 274.224001,481.6 273.936,481.6 C273.647999,481.6 273.384001,481.492001 273.144,481.276 C272.903999,481.059999 272.784,480.784002 272.784,480.448 C272.784,480.111998 272.903999,479.836001 273.144,479.62 C273.384001,479.403999 273.647999,479.296 273.936,479.296 C274.224001,479.296 274.487999,479.403999 274.728,479.62 C274.968001,479.836001 275.088,480.111998 275.088,480.448 Z M274.728,496 L273.144,496 L273.144,484.768 L274.728,484.768 L274.728,496 Z M279.696,490.24 C279.696,490.832003 279.803999,491.387997 280.02,491.908 C280.236001,492.428003 280.531998,492.883998 280.908,493.276 C281.284002,493.668002 281.723997,493.979999 282.228,494.212 C282.732003,494.444001 283.279997,494.56 283.872,494.56 C284.448003,494.56 284.995997,494.456001 285.516,494.248 C286.036003,494.039999 286.495998,493.748002 286.896,493.372 C287.296002,492.995998 287.603999,492.544003 287.82,492.016 C288.036001,491.487997 288.136,490.896003 288.12,490.24 C288.12,489.647997 288.024001,489.092003 287.832,488.572 C287.639999,488.051997 287.360002,487.596002 286.992,487.204 C286.623998,486.811998 286.176003,486.500001 285.648,486.268 C285.119997,486.035999 284.528003,485.92 283.872,485.92 C283.279997,485.92 282.732003,486.035999 282.228,486.268 C281.723997,486.500001 281.284002,486.811998 280.908,487.204 C280.531998,487.596002 280.236001,488.051997 280.02,488.572 C279.803999,489.092003 279.696,489.647997 279.696,490.24 Z M279.408,498.256 C279.872002,498.880003 280.475996,499.379998 281.22,499.756 C281.964004,500.132002 282.791995,500.32 283.704,500.32 C284.504004,500.32 285.183997,500.204001 285.744,499.972 C286.304003,499.739999 286.755998,499.424002 287.1,499.024 C287.444002,498.623998 287.691999,498.156003 287.844,497.62 C287.996001,497.083997 288.072,496.512003 288.072,495.904 L288.072,493.888 L288.024,493.888 C287.511997,494.656004 286.888004,495.199998 286.152,495.52 C285.415996,495.840002 284.640004,496 283.824,496 C283.007996,496 282.244004,495.856001 281.532,495.568 C280.819996,495.279999 280.200003,494.884003 279.672,494.38 C279.143997,493.875997 278.728002,493.272004 278.424,492.568 C278.119998,491.863996 277.968,491.104004 277.968,490.288 C277.968,489.471996 278.111999,488.712004 278.4,488.008 C278.688001,487.303996 279.083997,486.688003 279.588,486.16 C280.092003,485.631997 280.691997,485.220001 281.388,484.924 C282.084003,484.627999 282.847996,484.48 283.68,484.48 C284.016002,484.48 284.371998,484.512 284.748,484.576 C285.124002,484.64 285.499998,484.751999 285.876,484.912 C286.252002,485.072001 286.623998,485.291999 286.992,485.572 C287.360002,485.852001 287.703998,486.207998 288.024,486.64 L288.072,486.64 L288.072,484.768 L289.656,484.768 L289.656,495.904 C289.656,496.512003 289.580001,497.159997 289.428,497.848 C289.275999,498.536003 288.980002,499.167997 288.54,499.744 C288.099998,500.320003 287.488004,500.799998 286.704,501.184 C285.919996,501.568002 284.896006,501.76 283.632,501.76 C282.511994,501.76 281.512004,501.576002 280.632,501.208 C279.751996,500.839998 278.952004,500.272004 278.232,499.504 L279.408,498.256 Z M294.72,484.768 C294.752,485.072002 294.772,485.371999 294.78,485.668 C294.788,485.964001 294.792,486.263998 294.792,486.568 L294.84,486.568 C295.016001,486.263998 295.239999,485.984001 295.512,485.728 C295.784001,485.471999 296.087998,485.252001 296.424,485.068 C296.760002,484.883999 297.115998,484.740001 297.492,484.636 C297.868002,484.531999 298.239998,484.48 298.608,484.48 C300.048007,484.48 301.111997,484.859996 301.8,485.62 C302.488003,486.380004 302.832,487.463993 302.832,488.872 L302.832,496 L301.248,496 L301.248,489.784 C301.248,488.535994 301.032002,487.580003 300.6,486.916 C300.167998,486.251997 299.368006,485.92 298.2,485.92 C298.12,485.92 297.896002,485.952 297.528,486.016 C297.159998,486.08 296.772002,486.255999 296.364,486.544 C295.955998,486.832001 295.592002,487.263997 295.272,487.84 C294.951998,488.416003 294.792,489.215995 294.792,490.24 L294.792,496 L293.208,496 L293.208,487.24 C293.208,486.935998 293.196,486.552002 293.172,486.088 C293.148,485.623998 293.12,485.184002 293.088,484.768 L294.72,484.768 Z M315.288,489.52 C315.288,488.447995 314.968003,487.580003 314.328,486.916 C313.687997,486.251997 312.792006,485.92 311.64,485.92 C311.127997,485.92 310.632002,486.019999 310.152,486.22 C309.671998,486.420001 309.252002,486.687998 308.892,487.024 C308.531998,487.360002 308.244001,487.743998 308.028,488.176 C307.811999,488.608002 307.704,489.055998 307.704,489.52 L315.288,489.52 Z M307.656,490.816 C307.704,491.376003 307.839999,491.903998 308.064,492.4 C308.288001,492.896002 308.583998,493.323998 308.952,493.684 C309.320002,494.044002 309.743998,494.327999 310.224,494.536 C310.704002,494.744001 311.223997,494.848 311.784,494.848 C312.632004,494.848 313.363997,494.652002 313.98,494.26 C314.596003,493.867998 315.063998,493.416003 315.384,492.904 L316.608,493.912 C315.935997,494.760004 315.196004,495.367998 314.388,495.736 C313.579996,496.104002 312.712005,496.288 311.784,496.288 C310.951996,496.288 310.180004,496.140001 309.468,495.844 C308.755996,495.547999 308.144003,495.136003 307.632,494.608 C307.119997,494.079997 306.716001,493.456004 306.42,492.736 C306.123999,492.015996 305.976,491.232004 305.976,490.384 C305.976,489.535996 306.119999,488.752004 306.408,488.032 C306.696001,487.311996 307.095997,486.688003 307.608,486.16 C308.120003,485.631997 308.719997,485.220001 309.408,484.924 C310.096003,484.627999 310.839996,484.48 311.64,484.48 C312.488004,484.48 313.247997,484.631998 313.92,484.936 C314.592003,485.240002 315.155998,485.643997 315.612,486.148 C316.068002,486.652003 316.415999,487.243997 316.656,487.924 C316.896001,488.604003 317.016,489.327996 317.016,490.096 L317.016,490.816 L307.656,490.816 Z M320.064,488.272 C320.064,487.775998 320.052,487.272003 320.028,486.76 C320.004,486.247997 319.984,485.584004 319.968,484.768 L321.528,484.768 L321.528,486.856 L321.576,486.856 C321.688001,486.551998 321.847999,486.260001 322.056,485.98 C322.264001,485.699999 322.515999,485.448001 322.812,485.224 C323.108001,484.999999 323.451998,484.820001 323.844,484.684 C324.236002,484.547999 324.679998,484.48 325.176,484.48 C325.624002,484.48 326.015998,484.528 326.352,484.624 L326.04,486.184 C325.831999,486.104 325.528002,486.064 325.128,486.064 C324.519997,486.064 324.000002,486.179999 323.568,486.412 C323.135998,486.644001 322.776001,486.939998 322.488,487.3 C322.199999,487.660002 321.988001,488.047998 321.852,488.464 C321.715999,488.880002 321.648,489.279998 321.648,489.664 L321.648,496 L320.064,496 L320.064,488.272 Z M338.904,487.648 C338.343997,487.968002 337.868002,488.267999 337.476,488.548 C337.083998,488.828001 336.768001,489.123998 336.528,489.436 C336.287999,489.748002 336.112001,490.079998 336,490.432 C335.887999,490.784002 335.832,491.175998 335.832,491.608 C335.832,492.088002 335.927999,492.527998 336.12,492.928 C336.312001,493.328002 336.567998,493.667999 336.888,493.948 C337.208002,494.228001 337.575998,494.447999 337.992,494.608 C338.408002,494.768001 338.847998,494.848 339.312,494.848 C339.776002,494.848 340.195998,494.784001 340.572,494.656 C340.948002,494.527999 341.299998,494.352001 341.628,494.128 C341.956002,493.903999 342.263999,493.640002 342.552,493.336 C342.840001,493.031998 343.119999,492.704002 343.392,492.352 L338.904,487.648 Z M342.456,482.392 C342.456,481.719997 342.228002,481.180002 341.772,480.772 C341.315998,480.363998 340.760003,480.16 340.104,480.16 C339.383996,480.16 338.780002,480.383998 338.292,480.832 C337.803998,481.280002 337.56,481.887996 337.56,482.656 C337.56,482.944001 337.627999,483.243998 337.764,483.556 C337.900001,483.868002 338.059999,484.159999 338.244,484.432 C338.428001,484.704001 338.619999,484.955999 338.82,485.188 C339.020001,485.420001 339.191999,485.591999 339.336,485.704 C339.656002,485.511999 339.999998,485.316001 340.368,485.116 C340.736002,484.915999 341.075998,484.688001 341.388,484.432 C341.700002,484.175999 341.955999,483.880002 342.156,483.544 C342.356001,483.207998 342.456,482.824002 342.456,482.392 Z M345.504,492.064 L349.32,496 L346.872,496 L344.472,493.504 C343.767996,494.416005 343.016004,495.131997 342.216,495.652 C341.415996,496.172003 340.440006,496.432 339.288,496.432 C338.583996,496.432 337.908003,496.324001 337.26,496.108 C336.611997,495.891999 336.044002,495.576002 335.556,495.16 C335.067998,494.743998 334.680001,494.236003 334.392,493.636 C334.103999,493.035997 333.96,492.352004 333.96,491.584 C333.96,490.959997 334.063999,490.392003 334.272,489.88 C334.480001,489.367997 334.763998,488.908002 335.124,488.5 C335.484002,488.091998 335.895998,487.728002 336.36,487.408 C336.824002,487.087998 337.311997,486.808001 337.824,486.568 C337.311997,486.023997 336.852002,485.420003 336.444,484.756 C336.035998,484.091997 335.832,483.368004 335.832,482.584 C335.832,481.943997 335.939999,481.376002 336.156,480.88 C336.372001,480.383998 336.671998,479.964002 337.056,479.62 C337.440002,479.275998 337.887997,479.016001 338.4,478.84 C338.912003,478.663999 339.471997,478.576 340.08,478.576 C340.640003,478.576 341.167998,478.659999 341.664,478.828 C342.160002,478.996001 342.595998,479.239998 342.972,479.56 C343.348002,479.880002 343.643999,480.275998 343.86,480.748 C344.076001,481.220002 344.184,481.767997 344.184,482.392 C344.184,482.952003 344.072001,483.451998 343.848,483.892 C343.623999,484.332002 343.332002,484.731998 342.972,485.092 C342.611998,485.452002 342.208002,485.771999 341.76,486.052 C341.311998,486.332001 340.872002,486.583999 340.44,486.808 L344.352,490.84 L346.68,486.808 L348.624,486.808 L345.504,492.064 Z M360.408,496 L358.68,496 L358.68,479.008 L368.928,479.008 L368.928,480.592 L360.408,480.592 L360.408,486.376 L368.328,486.376 L368.328,487.96 L360.408,487.96 L360.408,496 Z M371.616,488.272 C371.616,487.775998 371.604,487.272003 371.58,486.76 C371.556,486.247997 371.536,485.584004 371.52,484.768 L373.08,484.768 L373.08,486.856 L373.128,486.856 C373.240001,486.551998 373.399999,486.260001 373.608,485.98 C373.816001,485.699999 374.067999,485.448001 374.364,485.224 C374.660001,484.999999 375.003998,484.820001 375.396,484.684 C375.788002,484.547999 376.231998,484.48 376.728,484.48 C377.176002,484.48 377.567998,484.528 377.904,484.624 L377.592,486.184 C377.383999,486.104 377.080002,486.064 376.68,486.064 C376.071997,486.064 375.552002,486.179999 375.12,486.412 C374.687998,486.644001 374.328001,486.939998 374.04,487.3 C373.751999,487.660002 373.540001,488.047998 373.404,488.464 C373.267999,488.880002 373.2,489.279998 373.2,489.664 L373.2,496 L371.616,496 L371.616,488.272 Z M388.608,490.384 C388.608,489.759997 388.508001,489.176003 388.308,488.632 C388.107999,488.087997 387.824002,487.616002 387.456,487.216 C387.087998,486.815998 386.644003,486.500001 386.124,486.268 C385.603997,486.035999 385.016003,485.92 384.36,485.92 C383.703997,485.92 383.116003,486.035999 382.596,486.268 C382.075997,486.500001 381.636002,486.815998 381.276,487.216 C380.915998,487.616002 380.636001,488.087997 380.436,488.632 C380.235999,489.176003 380.136,489.759997 380.136,490.384 C380.136,491.008003 380.235999,491.591997 380.436,492.136 C380.636001,492.680003 380.915998,493.151998 381.276,493.552 C381.636002,493.952002 382.075997,494.267999 382.596,494.5 C383.116003,494.732001 383.703997,494.848 384.36,494.848 C385.016003,494.848 385.603997,494.732001 386.124,494.5 C386.644003,494.267999 387.087998,493.952002 387.456,493.552 C387.824002,493.151998 388.107999,492.680003 388.308,492.136 C388.508001,491.591997 388.608,491.008003 388.608,490.384 Z M390.336,490.384 C390.336,491.232004 390.188001,492.015996 389.892,492.736 C389.595999,493.456004 389.184003,494.079997 388.656,494.608 C388.127997,495.136003 387.500004,495.547999 386.772,495.844 C386.043996,496.140001 385.240004,496.288 384.36,496.288 C383.495996,496.288 382.700004,496.140001 381.972,495.844 C381.243996,495.547999 380.616003,495.136003 380.088,494.608 C379.559997,494.079997 379.148001,493.456004 378.852,492.736 C378.555999,492.015996 378.408,491.232004 378.408,490.384 C378.408,489.535996 378.555999,488.752004 378.852,488.032 C379.148001,487.311996 379.559997,486.688003 380.088,486.16 C380.616003,485.631997 381.243996,485.220001 381.972,484.924 C382.700004,484.627999 383.495996,484.48 384.36,484.48 C385.240004,484.48 386.043996,484.627999 386.772,484.924 C387.500004,485.220001 388.127997,485.631997 388.656,486.16 C389.184003,486.688003 389.595999,487.311996 389.892,488.032 C390.188001,488.752004 390.336,489.535996 390.336,490.384 Z M394.728,484.768 C394.76,485.072002 394.78,485.371999 394.788,485.668 C394.796,485.964001 394.8,486.263998 394.8,486.568 L394.848,486.568 C395.024001,486.263998 395.247999,485.984001 395.52,485.728 C395.792001,485.471999 396.095998,485.252001 396.432,485.068 C396.768002,484.883999 397.123998,484.740001 397.5,484.636 C397.876002,484.531999 398.247998,484.48 398.616,484.48 C400.056007,484.48 401.119997,484.859996 401.808,485.62 C402.496003,486.380004 402.84,487.463993 402.84,488.872 L402.84,496 L401.256,496 L401.256,489.784 C401.256,488.535994 401.040002,487.580003 400.608,486.916 C400.175998,486.251997 399.376006,485.92 398.208,485.92 C398.128,485.92 397.904002,485.952 397.536,486.016 C397.167998,486.08 396.780002,486.255999 396.372,486.544 C395.963998,486.832001 395.600002,487.263997 395.28,487.84 C394.959998,488.416003 394.8,489.215995 394.8,490.24 L394.8,496 L393.216,496 L393.216,487.24 C393.216,486.935998 393.204,486.552002 393.18,486.088 C393.156,485.623998 393.128,485.184002 393.096,484.768 L394.728,484.768 Z M412.368,486.208 L409.128,486.208 L409.128,492.832 C409.128,493.248002 409.168,493.587999 409.248,493.852 C409.328,494.116001 409.439999,494.319999 409.584,494.464 C409.728001,494.608001 409.899999,494.708 410.1,494.764 C410.300001,494.82 410.519999,494.848 410.76,494.848 C411.032001,494.848 411.311999,494.808 411.6,494.728 C411.888001,494.648 412.151999,494.544001 412.392,494.416 L412.464,495.88 C411.871997,496.152001 411.160004,496.288 410.328,496.288 C410.023998,496.288 409.708002,496.248 409.38,496.168 C409.051998,496.088 408.752001,495.936001 408.48,495.712 C408.207999,495.487999 407.984001,495.184002 407.808,494.8 C407.631999,494.415998 407.544,493.912003 407.544,493.288 L407.544,486.208 L405.168,486.208 L405.168,484.768 L407.544,484.768 L407.544,481.6 L409.128,481.6 L409.128,484.768 L412.368,484.768 L412.368,486.208 Z M419.88,491.032 L413.712,491.032 L413.712,489.448 L419.88,489.448 L419.88,491.032 Z M431.256,489.52 C431.256,488.447995 430.936003,487.580003 430.296,486.916 C429.655997,486.251997 428.760006,485.92 427.608,485.92 C427.095997,485.92 426.600002,486.019999 426.12,486.22 C425.639998,486.420001 425.220002,486.687998 424.86,487.024 C424.499998,487.360002 424.212001,487.743998 423.996,488.176 C423.779999,488.608002 423.672,489.055998 423.672,489.52 L431.256,489.52 Z M423.624,490.816 C423.672,491.376003 423.807999,491.903998 424.032,492.4 C424.256001,492.896002 424.551998,493.323998 424.92,493.684 C425.288002,494.044002 425.711998,494.327999 426.192,494.536 C426.672002,494.744001 427.191997,494.848 427.752,494.848 C428.600004,494.848 429.331997,494.652002 429.948,494.26 C430.564003,493.867998 431.031998,493.416003 431.352,492.904 L432.576,493.912 C431.903997,494.760004 431.164004,495.367998 430.356,495.736 C429.547996,496.104002 428.680005,496.288 427.752,496.288 C426.919996,496.288 426.148004,496.140001 425.436,495.844 C424.723996,495.547999 424.112003,495.136003 423.6,494.608 C423.087997,494.079997 422.684001,493.456004 422.388,492.736 C422.091999,492.015996 421.944,491.232004 421.944,490.384 C421.944,489.535996 422.087999,488.752004 422.376,488.032 C422.664001,487.311996 423.063997,486.688003 423.576,486.16 C424.088003,485.631997 424.687997,485.220001 425.376,484.924 C426.064003,484.627999 426.807996,484.48 427.608,484.48 C428.456004,484.48 429.215997,484.631998 429.888,484.936 C430.560003,485.240002 431.123998,485.643997 431.58,486.148 C432.036002,486.652003 432.383999,487.243997 432.624,487.924 C432.864001,488.604003 432.984,489.327996 432.984,490.096 L432.984,490.816 L423.624,490.816 Z M437.376,484.768 C437.408,485.072002 437.428,485.371999 437.436,485.668 C437.444,485.964001 437.448,486.263998 437.448,486.568 L437.496,486.568 C437.672001,486.263998 437.895999,485.984001 438.168,485.728 C438.440001,485.471999 438.743998,485.252001 439.08,485.068 C439.416002,484.883999 439.771998,484.740001 440.148,484.636 C440.524002,484.531999 440.895998,484.48 441.264,484.48 C442.704007,484.48 443.767997,484.859996 444.456,485.62 C445.144003,486.380004 445.488,487.463993 445.488,488.872 L445.488,496 L443.904,496 L443.904,489.784 C443.904,488.535994 443.688002,487.580003 443.256,486.916 C442.823998,486.251997 442.024006,485.92 440.856,485.92 C440.776,485.92 440.552002,485.952 440.184,486.016 C439.815998,486.08 439.428002,486.255999 439.02,486.544 C438.611998,486.832001 438.248002,487.263997 437.928,487.84 C437.607998,488.416003 437.448,489.215995 437.448,490.24 L437.448,496 L435.864,496 L435.864,487.24 C435.864,486.935998 435.852,486.552002 435.828,486.088 C435.804,485.623998 435.776,485.184002 435.744,484.768 L437.376,484.768 Z M450.168,490.384 C450.168,491.008003 450.267999,491.591997 450.468,492.136 C450.668001,492.680003 450.951998,493.151998 451.32,493.552 C451.688002,493.952002 452.131997,494.267999 452.652,494.5 C453.172003,494.732001 453.759997,494.848 454.416,494.848 C455.056003,494.848 455.651997,494.732001 456.204,494.5 C456.756003,494.267999 457.231998,493.952002 457.632,493.552 C458.032002,493.151998 458.343999,492.680003 458.568,492.136 C458.792001,491.591997 458.904,491.008003 458.904,490.384 C458.904,489.759997 458.792001,489.176003 458.568,488.632 C458.343999,488.087997 458.032002,487.616002 457.632,487.216 C457.231998,486.815998 456.756003,486.500001 456.204,486.268 C455.651997,486.035999 455.056003,485.92 454.416,485.92 C453.759997,485.92 453.172003,486.035999 452.652,486.268 C452.131997,486.500001 451.688002,486.815998 451.32,487.216 C450.951998,487.616002 450.668001,488.087997 450.468,488.632 C450.267999,489.176003 450.168,489.759997 450.168,490.384 Z M460.416,496 L458.832,496 L458.832,494.128 L458.784,494.128 C458.527999,494.512002 458.224002,494.839999 457.872,495.112 C457.519998,495.384001 457.152002,495.607999 456.768,495.784 C456.383998,495.960001 455.988002,496.088 455.58,496.168 C455.171998,496.248 454.784002,496.288 454.416,496.288 C453.535996,496.288 452.732004,496.140001 452.004,495.844 C451.275996,495.547999 450.648003,495.136003 450.12,494.608 C449.591997,494.079997 449.180001,493.456004 448.884,492.736 C448.587999,492.015996 448.44,491.232004 448.44,490.384 C448.44,489.535996 448.587999,488.752004 448.884,488.032 C449.180001,487.311996 449.591997,486.688003 450.12,486.16 C450.648003,485.631997 451.275996,485.220001 452.004,484.924 C452.732004,484.627999 453.535996,484.48 454.416,484.48 C454.784002,484.48 455.171998,484.52 455.58,484.6 C455.988002,484.68 456.383998,484.807999 456.768,484.984 C457.152002,485.160001 457.519998,485.383999 457.872,485.656 C458.224002,485.928001 458.527999,486.255998 458.784,486.64 L458.832,486.64 L458.832,477.856 L460.416,477.856 L460.416,496 Z M471.504,490.384 C471.504,491.008003 471.603999,491.591997 471.804,492.136 C472.004001,492.680003 472.287998,493.151998 472.656,493.552 C473.024002,493.952002 473.467997,494.267999 473.988,494.5 C474.508003,494.732001 475.095997,494.848 475.752,494.848 C476.392003,494.848 476.987997,494.732001 477.54,494.5 C478.092003,494.267999 478.567998,493.952002 478.968,493.552 C479.368002,493.151998 479.679999,492.680003 479.904,492.136 C480.128001,491.591997 480.24,491.008003 480.24,490.384 C480.24,489.759997 480.128001,489.176003 479.904,488.632 C479.679999,488.087997 479.368002,487.616002 478.968,487.216 C478.567998,486.815998 478.092003,486.500001 477.54,486.268 C476.987997,486.035999 476.392003,485.92 475.752,485.92 C475.095997,485.92 474.508003,486.035999 473.988,486.268 C473.467997,486.500001 473.024002,486.815998 472.656,487.216 C472.287998,487.616002 472.004001,488.087997 471.804,488.632 C471.603999,489.176003 471.504,489.759997 471.504,490.384 Z M481.752,496 L480.168,496 L480.168,494.128 L480.12,494.128 C479.863999,494.512002 479.560002,494.839999 479.208,495.112 C478.855998,495.384001 478.488002,495.607999 478.104,495.784 C477.719998,495.960001 477.324002,496.088 476.916,496.168 C476.507998,496.248 476.120002,496.288 475.752,496.288 C474.871996,496.288 474.068004,496.140001 473.34,495.844 C472.611996,495.547999 471.984003,495.136003 471.456,494.608 C470.927997,494.079997 470.516001,493.456004 470.22,492.736 C469.923999,492.015996 469.776,491.232004 469.776,490.384 C469.776,489.535996 469.923999,488.752004 470.22,488.032 C470.516001,487.311996 470.927997,486.688003 471.456,486.16 C471.984003,485.631997 472.611996,485.220001 473.34,484.924 C474.068004,484.627999 474.871996,484.48 475.752,484.48 C476.120002,484.48 476.507998,484.52 476.916,484.6 C477.324002,484.68 477.719998,484.807999 478.104,484.984 C478.488002,485.160001 478.855998,485.383999 479.208,485.656 C479.560002,485.928001 479.863999,486.255998 480.12,486.64 L480.168,486.64 L480.168,477.856 L481.752,477.856 L481.752,496 Z M493.944,489.52 C493.944,488.447995 493.624003,487.580003 492.984,486.916 C492.343997,486.251997 491.448006,485.92 490.296,485.92 C489.783997,485.92 489.288002,486.019999 488.808,486.22 C488.327998,486.420001 487.908002,486.687998 487.548,487.024 C487.187998,487.360002 486.900001,487.743998 486.684,488.176 C486.467999,488.608002 486.36,489.055998 486.36,489.52 L493.944,489.52 Z M486.312,490.816 C486.36,491.376003 486.495999,491.903998 486.72,492.4 C486.944001,492.896002 487.239998,493.323998 487.608,493.684 C487.976002,494.044002 488.399998,494.327999 488.88,494.536 C489.360002,494.744001 489.879997,494.848 490.44,494.848 C491.288004,494.848 492.019997,494.652002 492.636,494.26 C493.252003,493.867998 493.719998,493.416003 494.04,492.904 L495.264,493.912 C494.591997,494.760004 493.852004,495.367998 493.044,495.736 C492.235996,496.104002 491.368005,496.288 490.44,496.288 C489.607996,496.288 488.836004,496.140001 488.124,495.844 C487.411996,495.547999 486.800003,495.136003 486.288,494.608 C485.775997,494.079997 485.372001,493.456004 485.076,492.736 C484.779999,492.015996 484.632,491.232004 484.632,490.384 C484.632,489.535996 484.775999,488.752004 485.064,488.032 C485.352001,487.311996 485.751997,486.688003 486.264,486.16 C486.776003,485.631997 487.375997,485.220001 488.064,484.924 C488.752003,484.627999 489.495996,484.48 490.296,484.48 C491.144004,484.48 491.903997,484.631998 492.576,484.936 C493.248003,485.240002 493.811998,485.643997 494.268,486.148 C494.724002,486.652003 495.071999,487.243997 495.312,487.924 C495.552001,488.604003 495.672,489.327996 495.672,490.096 L495.672,490.816 L486.312,490.816 Z M503.496,496 L501.72,496 L497.16,484.768 L499.056,484.768 L502.632,494.224 L502.68,494.224 L506.256,484.768 L508.056,484.768 L503.496,496 Z" id="path-1"></path>
        <filter x="-2.0%" y="-20.9%" width="104.0%" height="158.6%" filterUnits="objectBoundingBox" id="filter-2">
            <feOffset dx="0" dy="2" in="SourceAlpha" result="shadowOffsetOuter1"></feOffset>
            <feGaussianBlur stdDeviation="2" in="shadowOffsetOuter1" result="shadowBlurOuter1"></feGaussianBlur>
            <feColorMatrix values="0 0 0 0 0   0 0 0 0 0   0 0 0 0 0  0 0 0 0.5 0" type="matrix" in="shadowBlurOuter1"></feColorMatrix>
        </filter>
    </defs>
    <g id="Page-1" stroke="none" stroke-width="1" fill="none" fill-rule="evenodd">
        <g id="Desktop" transform="translate(-154.000000, -476.000000)">
            <g id="Digital-designer-&amp;-F">
                <use fill="black" fill-opacity="1" filter="url(#filter-2)" xlink:href="#path-1"></use>
                <use fill="#FFFFFF" fill-rule="evenodd" xlink:href="#path-1"></use>
            </g>
        </g>
    </g>
</svg>