<?xml version="1.0" encoding="UTF-8"?>
<svg width="441px" height="73px" viewBox="0 0 441 73" version="1.1" xmlns="http://www.w3.org/2000/svg" xmlns:xlink="http://www.w3.org/1999/xlink">
    <!-- Generator: Sketch 46.2 (44496) - http://www.bohemiancoding.com/sketch -->
    <title>Heather Song</title>
    <desc>Created with Sketch.</desc>
    <defs></defs>
    <g id="Page-1" stroke="none" stroke-width="1" fill="none" fill-rule="evenodd">
        <g id="Desktop" transform="translate(-113.000000, -394.000000)" fill="#FFFFFF">
            <path d="M113.552,398.024 L120.464,398.024 L120.464,419.192 L146.888,419.192 L146.888,398.024 L153.8,398.024 L153.8,449 L146.888,449 L146.888,425.672 L120.464,425.672 L120.464,449 L113.552,449 L113.552,398.024 Z M170.144,434.312 C170.144,435.800007 170.467997,437.155994 171.116,438.38 C171.764003,439.604006 172.615995,440.647996 173.672,441.512 C174.728005,442.376004 175.951993,443.047998 177.344,443.528 C178.736007,444.008002 180.175993,444.248 181.664,444.248 C183.68001,444.248 185.431993,443.780005 186.92,442.844 C188.408007,441.907995 189.775994,440.672008 191.024,439.136 L195.92,442.88 C192.319982,447.536023 187.280032,449.864 180.8,449.864 C178.111987,449.864 175.676011,449.408005 173.492,448.496 C171.307989,447.583995 169.460008,446.324008 167.948,444.716 C166.435992,443.107992 165.272004,441.212011 164.456,439.028 C163.639996,436.843989 163.232,434.480013 163.232,431.936 C163.232,429.391987 163.675996,427.028011 164.564,424.844 C165.452004,422.659989 166.675992,420.764008 168.236,419.156 C169.796008,417.547992 171.655989,416.288005 173.816,415.376 C175.976011,414.463995 178.327987,414.008 180.872,414.008 C183.896015,414.008 186.45199,414.535995 188.54,415.592 C190.62801,416.648005 192.343993,418.027991 193.688,419.732 C195.032007,421.436009 196.003997,423.355989 196.604,425.492 C197.204003,427.628011 197.504,429.799989 197.504,432.008 L197.504,434.312 L170.144,434.312 Z M190.592,429.128 C190.544,427.687993 190.316002,426.368006 189.908,425.168 C189.499998,423.967994 188.888004,422.924004 188.072,422.036 C187.255996,421.147996 186.236006,420.452003 185.012,419.948 C183.787994,419.443997 182.360008,419.192 180.728,419.192 C179.143992,419.192 177.692007,419.491997 176.372,420.092 C175.051993,420.692003 173.936005,421.471995 173.024,422.432 C172.111995,423.392005 171.404003,424.459994 170.9,425.636 C170.395997,426.812006 170.144,427.975994 170.144,429.128 L190.592,429.128 Z M205.424,419.048 C207.248009,417.367992 209.359988,416.108004 211.76,415.268 C214.160012,414.427996 216.559988,414.008 218.96,414.008 C221.456012,414.008 223.603991,414.319997 225.404,414.944 C227.204009,415.568003 228.679994,416.407995 229.832,417.464 C230.984006,418.520005 231.835997,419.731993 232.388,421.1 C232.940003,422.468007 233.216,423.895993 233.216,425.384 L233.216,442.808 C233.216,444.008006 233.24,445.111995 233.288,446.12 C233.336,447.128005 233.408,448.087995 233.504,449 L227.744,449 C227.599999,447.271991 227.528,445.544009 227.528,443.816 L227.384,443.816 C225.943993,446.024011 224.24001,447.583995 222.272,448.496 C220.30399,449.408005 218.024013,449.864 215.432,449.864 C213.847992,449.864 212.336007,449.648002 210.896,449.216 C209.455993,448.783998 208.196005,448.136004 207.116,447.272 C206.035995,446.407996 205.184003,445.340006 204.56,444.068 C203.935997,442.795994 203.624,441.320008 203.624,439.64 C203.624,437.431989 204.115995,435.584007 205.1,434.096 C206.084005,432.607993 207.427991,431.396005 209.132,430.46 C210.836009,429.523995 212.827989,428.852002 215.108,428.444 C217.388011,428.035998 219.823987,427.832 222.416,427.832 L227.168,427.832 L227.168,426.392 C227.168,425.527996 227.000002,424.664004 226.664,423.8 C226.327998,422.935996 225.824003,422.156003 225.152,421.46 C224.479997,420.763997 223.640005,420.212002 222.632,419.804 C221.623995,419.395998 220.424007,419.192 219.032,419.192 C217.783994,419.192 216.692005,419.311999 215.756,419.552 C214.819995,419.792001 213.968004,420.091998 213.2,420.452 C212.431996,420.812002 211.736003,421.231998 211.112,421.712 C210.487997,422.192002 209.888003,422.647998 209.312,423.08 L205.424,419.048 Z M223.712,432.584 C222.175992,432.584 220.604008,432.667999 218.996,432.836 C217.387992,433.004001 215.924007,433.327998 214.604,433.808 C213.283993,434.288002 212.204004,434.959996 211.364,435.824 C210.523996,436.688004 210.104,437.791993 210.104,439.136 C210.104,441.10401 210.763993,442.519996 212.084,443.384 C213.404007,444.248004 215.191989,444.68 217.448,444.68 C219.224009,444.68 220.735994,444.380003 221.984,443.78 C223.232006,443.179997 224.239996,442.400005 225.008,441.44 C225.776004,440.479995 226.327998,439.412006 226.664,438.236 C227.000002,437.059994 227.168,435.896006 227.168,434.744 L227.168,432.584 L223.712,432.584 Z M260.936,420.488 L251.648,420.488 L251.648,435.968 C251.648,436.928005 251.672,437.875995 251.72,438.812 C251.768,439.748005 251.947998,440.587996 252.26,441.332 C252.572002,442.076004 253.051997,442.675998 253.7,443.132 C254.348003,443.588002 255.295994,443.816 256.544,443.816 C257.312004,443.816 258.103996,443.744001 258.92,443.6 C259.736004,443.455999 260.479997,443.192002 261.152,442.808 L261.152,448.712 C260.383996,449.144002 259.388006,449.443999 258.164,449.612 C256.939994,449.780001 255.992003,449.864 255.32,449.864 C252.823988,449.864 250.892007,449.516003 249.524,448.82 C248.155993,448.123997 247.148003,447.224006 246.5,446.12 C245.851997,445.015994 245.468001,443.780007 245.348,442.412 C245.227999,441.043993 245.168,439.664007 245.168,438.272 L245.168,420.488 L237.68,420.488 L237.68,414.872 L245.168,414.872 L245.168,405.296 L251.648,405.296 L251.648,414.872 L260.936,414.872 L260.936,420.488 Z M269.288,394.568 L275.768,394.568 L275.768,420.128 L275.912,420.128 C276.728004,418.303991 278.14399,416.828006 280.16,415.7 C282.17601,414.571994 284.503987,414.008 287.144,414.008 C288.776008,414.008 290.347992,414.259997 291.86,414.764 C293.372008,415.268003 294.691994,416.047995 295.82,417.104 C296.948006,418.160005 297.847997,419.515992 298.52,421.172 C299.192003,422.828008 299.528,424.783989 299.528,427.04 L299.528,449 L293.048,449 L293.048,428.84 C293.048,427.255992 292.832002,425.900006 292.4,424.772 C291.967998,423.643994 291.392004,422.732003 290.672,422.036 C289.951996,421.339997 289.124005,420.836002 288.188,420.524 C287.251995,420.211998 286.280005,420.056 285.272,420.056 C283.927993,420.056 282.680006,420.271998 281.528,420.704 C280.375994,421.136002 279.368004,421.819995 278.504,422.756 C277.639996,423.692005 276.968002,424.879993 276.488,426.32 C276.007998,427.760007 275.768,429.46399 275.768,431.432 L275.768,449 L269.288,449 L269.288,394.568 Z M314.216,434.312 C314.216,435.800007 314.539997,437.155994 315.188,438.38 C315.836003,439.604006 316.687995,440.647996 317.744,441.512 C318.800005,442.376004 320.023993,443.047998 321.416,443.528 C322.808007,444.008002 324.247993,444.248 325.736,444.248 C327.75201,444.248 329.503993,443.780005 330.992,442.844 C332.480007,441.907995 333.847994,440.672008 335.096,439.136 L339.992,442.88 C336.391982,447.536023 331.352032,449.864 324.872,449.864 C322.183987,449.864 319.748011,449.408005 317.564,448.496 C315.379989,447.583995 313.532008,446.324008 312.02,444.716 C310.507992,443.107992 309.344004,441.212011 308.528,439.028 C307.711996,436.843989 307.304,434.480013 307.304,431.936 C307.304,429.391987 307.747996,427.028011 308.636,424.844 C309.524004,422.659989 310.747992,420.764008 312.308,419.156 C313.868008,417.547992 315.727989,416.288005 317.888,415.376 C320.048011,414.463995 322.399987,414.008 324.944,414.008 C327.968015,414.008 330.52399,414.535995 332.612,415.592 C334.70001,416.648005 336.415993,418.027991 337.76,419.732 C339.104007,421.436009 340.075997,423.355989 340.676,425.492 C341.276003,427.628011 341.576,429.799989 341.576,432.008 L341.576,434.312 L314.216,434.312 Z M334.664,429.128 C334.616,427.687993 334.388002,426.368006 333.98,425.168 C333.571998,423.967994 332.960004,422.924004 332.144,422.036 C331.327996,421.147996 330.308006,420.452003 329.084,419.948 C327.859994,419.443997 326.432008,419.192 324.8,419.192 C323.215992,419.192 321.764007,419.491997 320.444,420.092 C319.123993,420.692003 318.008005,421.471995 317.096,422.432 C316.183995,423.392005 315.476003,424.459994 314.972,425.636 C314.467997,426.812006 314.216,427.975994 314.216,429.128 L334.664,429.128 Z M349.352,414.872 L355.832,414.872 L355.832,420.128 L355.976,420.128 C356.408002,419.215995 356.983996,418.388004 357.704,417.644 C358.424004,416.899996 359.227996,416.264003 360.116,415.736 C361.004004,415.207997 361.975995,414.788002 363.032,414.476 C364.088005,414.163998 365.143995,414.008 366.2,414.008 C367.256005,414.008 368.215996,414.151999 369.08,414.44 L368.792,421.424 C368.263997,421.279999 367.736003,421.16 367.208,421.064 C366.679997,420.968 366.152003,420.92 365.624,420.92 C362.455984,420.92 360.032008,421.807991 358.352,423.584 C356.671992,425.360009 355.832,428.119981 355.832,431.864 L355.832,449 L349.352,449 L349.352,414.872 Z M399.176,438.344 C400.424006,440.216009 402.01999,441.595996 403.964,442.484 C405.90801,443.372004 407.91199,443.816 409.976,443.816 C411.128006,443.816 412.303994,443.636002 413.504,443.276 C414.704006,442.915998 415.795995,442.376004 416.78,441.656 C417.764005,440.935996 418.567997,440.048005 419.192,438.992 C419.816003,437.935995 420.128,436.712007 420.128,435.32 C420.128,433.35199 419.504006,431.852005 418.256,430.82 C417.007994,429.787995 415.460009,428.924003 413.612,428.228 C411.763991,427.531997 409.748011,426.860003 407.564,426.212 C405.379989,425.563997 403.364009,424.664006 401.516,423.512 C399.667991,422.359994 398.120006,420.81201 396.872,418.868 C395.623994,416.92399 395,414.296017 395,410.984 C395,409.495993 395.323997,407.912008 395.972,406.232 C396.620003,404.551992 397.639993,403.016007 399.032,401.624 C400.424007,400.231993 402.211989,399.068005 404.396,398.132 C406.580011,397.195995 409.207985,396.728 412.28,396.728 C415.064014,396.728 417.727987,397.111996 420.272,397.88 C422.816013,398.648004 425.04799,400.207988 426.968,402.56 L421.352,407.672 C420.487996,406.327993 419.264008,405.248004 417.68,404.432 C416.095992,403.615996 414.29601,403.208 412.28,403.208 C410.35999,403.208 408.764006,403.459997 407.492,403.964 C406.219994,404.468003 405.200004,405.115996 404.432,405.908 C403.663996,406.700004 403.124002,407.551995 402.812,408.464 C402.499998,409.376005 402.344,410.215996 402.344,410.984 C402.344,413.144011 402.967994,414.799994 404.216,415.952 C405.464006,417.104006 407.011991,418.039996 408.86,418.76 C410.708009,419.480004 412.723989,420.127997 414.908,420.704 C417.092011,421.280003 419.107991,422.083995 420.956,423.116 C422.804009,424.148005 424.351994,425.539991 425.6,427.292 C426.848006,429.044009 427.472,431.455985 427.472,434.528 C427.472,436.976012 427.004005,439.18399 426.068,441.152 C425.131995,443.12001 423.872008,444.775993 422.288,446.12 C420.703992,447.464007 418.832011,448.495996 416.672,449.216 C414.511989,449.936004 412.208012,450.296 409.76,450.296 C406.495984,450.296 403.400015,449.720006 400.472,448.568 C397.543985,447.415994 395.216009,445.640012 393.488,443.24 L399.176,438.344 Z M441.296,431.936 C441.296,433.664009 441.559997,435.259993 442.088,436.724 C442.616003,438.188007 443.359995,439.435995 444.32,440.468 C445.280005,441.500005 446.455993,442.315997 447.848,442.916 C449.240007,443.516003 450.799991,443.816 452.528,443.816 C454.256009,443.816 455.815993,443.516003 457.208,442.916 C458.600007,442.315997 459.775995,441.500005 460.736,440.468 C461.696005,439.435995 462.439997,438.188007 462.968,436.724 C463.496003,435.259993 463.76,433.664009 463.76,431.936 C463.76,430.207991 463.496003,428.612007 462.968,427.148 C462.439997,425.683993 461.696005,424.436005 460.736,423.404 C459.775995,422.371995 458.600007,421.556003 457.208,420.956 C455.815993,420.355997 454.256009,420.056 452.528,420.056 C450.799991,420.056 449.240007,420.355997 447.848,420.956 C446.455993,421.556003 445.280005,422.371995 444.32,423.404 C443.359995,424.436005 442.616003,425.683993 442.088,427.148 C441.559997,428.612007 441.296,430.207991 441.296,431.936 Z M434.384,431.936 C434.384,429.439988 434.851995,427.112011 435.788,424.952 C436.724005,422.791989 438.007992,420.896008 439.64,419.264 C441.272008,417.631992 443.191989,416.348005 445.4,415.412 C447.608011,414.475995 449.983987,414.008 452.528,414.008 C455.072013,414.008 457.447989,414.475995 459.656,415.412 C461.864011,416.348005 463.783992,417.631992 465.416,419.264 C467.048008,420.896008 468.331995,422.791989 469.268,424.952 C470.204005,427.112011 470.672,429.439988 470.672,431.936 C470.672,434.432012 470.204005,436.771989 469.268,438.956 C468.331995,441.140011 467.048008,443.035992 465.416,444.644 C463.783992,446.252008 461.864011,447.523995 459.656,448.46 C457.447989,449.396005 455.072013,449.864 452.528,449.864 C449.983987,449.864 447.608011,449.396005 445.4,448.46 C443.191989,447.523995 441.272008,446.252008 439.64,444.644 C438.007992,443.035992 436.724005,441.140011 435.788,438.956 C434.851995,436.771989 434.384,434.432012 434.384,431.936 Z M478.808,414.872 L485.288,414.872 L485.288,420.128 L485.432,420.128 C486.248004,418.303991 487.66399,416.828006 489.68,415.7 C491.69601,414.571994 494.023987,414.008 496.664,414.008 C498.296008,414.008 499.867992,414.259997 501.38,414.764 C502.892008,415.268003 504.211994,416.047995 505.34,417.104 C506.468006,418.160005 507.367997,419.515992 508.04,421.172 C508.712003,422.828008 509.048,424.783989 509.048,427.04 L509.048,449 L502.568,449 L502.568,428.84 C502.568,427.255992 502.352002,425.900006 501.92,424.772 C501.487998,423.643994 500.912004,422.732003 500.192,422.036 C499.471996,421.339997 498.644005,420.836002 497.708,420.524 C496.771995,420.211998 495.800005,420.056 494.792,420.056 C493.447993,420.056 492.200006,420.271998 491.048,420.704 C489.895994,421.136002 488.888004,421.819995 488.024,422.756 C487.159996,423.692005 486.488002,424.879993 486.008,426.32 C485.527998,427.760007 485.288,429.46399 485.288,431.432 L485.288,449 L478.808,449 L478.808,414.872 Z M553.04,448.712 C553.04,451.304013 552.596004,453.667989 551.708,455.804 C550.819996,457.940011 549.560008,459.787992 547.928,461.348 C546.295992,462.908008 544.328012,464.119996 542.024,464.984 C539.719988,465.848004 537.176014,466.28 534.392,466.28 C531.127984,466.28 528.140014,465.824005 525.428,464.912 C522.715986,463.999995 520.136012,462.416011 517.688,460.16 L522.08,454.688 C523.760008,456.512009 525.58399,457.891995 527.552,458.828 C529.52001,459.764005 531.751988,460.232 534.248,460.232 C536.648012,460.232 538.639992,459.884003 540.224,459.188 C541.808008,458.491997 543.067995,457.592006 544.004,456.488 C544.940005,455.383994 545.599998,454.124007 545.984,452.708 C546.368002,451.291993 546.56,449.864007 546.56,448.424 L546.56,443.384 L546.344,443.384 C545.095994,445.44801 543.404011,446.971995 541.268,447.956 C539.131989,448.940005 536.888012,449.432 534.536,449.432 C532.039988,449.432 529.724011,448.988004 527.588,448.1 C525.451989,447.211996 523.616008,445.988008 522.08,444.428 C520.543992,442.867992 519.344004,441.020011 518.48,438.884 C517.615996,436.747989 517.184,434.432012 517.184,431.936 C517.184,429.439988 517.591996,427.100011 518.408,424.916 C519.224004,422.731989 520.387992,420.824008 521.9,419.192 C523.412008,417.559992 525.235989,416.288005 527.372,415.376 C529.508011,414.463995 531.895987,414.008 534.536,414.008 C536.840012,414.008 539.083989,414.511995 541.268,415.52 C543.452011,416.528005 545.167994,417.943991 546.416,419.768 L546.56,419.768 L546.56,414.872 L553.04,414.872 L553.04,448.712 Z M535.328,420.056 C533.599991,420.056 532.040007,420.355997 530.648,420.956 C529.255993,421.556003 528.080005,422.371995 527.12,423.404 C526.159995,424.436005 525.416003,425.683993 524.888,427.148 C524.359997,428.612007 524.096,430.207991 524.096,431.936 C524.096,435.392017 525.10399,438.16399 527.12,440.252 C529.13601,442.34001 531.871983,443.384 535.328,443.384 C538.784017,443.384 541.51999,442.34001 543.536,440.252 C545.55201,438.16399 546.56,435.392017 546.56,431.936 C546.56,430.207991 546.296003,428.612007 545.768,427.148 C545.239997,425.683993 544.496005,424.436005 543.536,423.404 C542.575995,422.371995 541.400007,421.556003 540.008,420.956 C538.615993,420.355997 537.056009,420.056 535.328,420.056 Z" id="Heather-Song"></path>
        </g>
    </g>
</svg>