<?xml version="1.0" encoding="UTF-8"?>
<svg width="12px" height="64px" viewBox="0 0 12 64" version="1.1" xmlns="http://www.w3.org/2000/svg" xmlns:xlink="http://www.w3.org/1999/xlink">
    <!-- Generator: Sketch 48.2 (47327) - http://www.bohemiancoding.com/sketch -->
    <title>디 자 이 너</title>
    <desc>Created with Sketch.</desc>
    <defs></defs>
    <g id="Page-1" stroke="none" stroke-width="1" fill="none" fill-rule="evenodd">
        <path d="M7.04,9.232 C6.976,9.392 6.864,9.504 6.736,9.552 C6.576,9.616 6.432,9.648 6.288,9.632 L6.288,8.864 C6.272,8.64 6.32,8.384 6.416,8.096 C6.432,8.096 6.448,8.096 6.48,8.08 C6.512,8.064 6.512,8.032 6.496,7.984 C6.448,7.984 6.432,7.952 6.448,7.856 L6.448,7.648 C6.448,7.6 6.48,7.536 6.512,7.472 C6.544,7.424 6.544,7.312 6.528,7.12 C6.496,6.8 6.512,6.496 6.576,6.208 C6.624,5.936 6.672,5.664 6.704,5.376 L6.704,4.992 C6.704,4.864 6.704,4.736 6.736,4.608 C6.736,4.496 6.752,4.384 6.8,4.256 C6.832,4.16 6.88,4.016 6.912,3.856 C6.88,3.728 6.896,3.6 6.928,3.504 C6.944,3.424 6.96,3.36 6.96,3.296 C6.992,2.976 7.04,2.656 7.088,2.336 C7.12,2.032 7.184,1.776 7.248,1.552 C7.248,1.504 7.264,1.472 7.264,1.44 L7.264,1.344 L7.424,1.232 C7.424,1.184 7.44,1.12 7.44,1.056 C7.424,1.008 7.472,0.928 7.568,0.8 C7.6,0.784 7.648,0.768 7.68,0.736 C7.712,0.736 7.76,0.72 7.824,0.704 C7.888,0.736 7.936,0.752 7.984,0.784 C8.016,0.816 8.032,0.832 8.064,0.832 C8.096,0.896 8.144,0.96 8.176,1.056 L8.272,1.392 L8.32,1.504 C8.304,1.568 8.288,1.6 8.272,1.616 C8.24,1.648 8.24,1.68 8.24,1.728 C8.24,1.792 8.24,1.84 8.272,1.888 C8.288,1.952 8.256,2.048 8.176,2.16 C8.272,2.288 8.304,2.432 8.24,2.624 C8.176,2.832 8.128,3.04 8.096,3.248 C8.08,3.376 8.064,3.488 8.064,3.584 C8.048,3.696 8.048,3.808 8.048,3.92 C8.016,4.144 8,4.304 8,4.368 C7.968,4.448 7.968,4.512 7.968,4.576 C7.952,4.64 7.952,4.72 7.968,4.848 C7.968,4.992 7.952,5.12 7.904,5.232 C7.84,5.328 7.824,5.44 7.824,5.568 C7.824,5.712 7.792,5.92 7.76,6.192 C7.744,6.256 7.728,6.304 7.712,6.336 C7.68,6.4 7.648,6.448 7.648,6.496 L7.712,6.64 C7.712,6.832 7.696,7.056 7.664,7.344 C7.6,7.632 7.568,7.92 7.536,8.208 L7.488,8.368 L7.456,8.432 L7.488,8.48 C7.424,8.656 7.36,8.816 7.296,8.944 C7.2,9.088 7.12,9.184 7.04,9.232 Z M5.10399979,6.22414269 C5.10399993,6.22409516 5.104,6.2240476 5.104,6.224 C5.104,6.224 5.10364624,6.22388208 5.10294884,6.22364624 L5.10399979,6.22414269 Z M5.10399979,6.22414269 C5.1039048,6.2560476 5.0719524,6.2720238 5.04,6.288 C4.992,6.32 4.992,6.32 5.056,6.32 C5.008,6.352 4.992,6.384 4.992,6.4 C4.976,6.432 4.976,6.48 4.976,6.512 C4.944,6.544 4.928,6.56 4.896,6.56 C4.864,6.592 4.832,6.608 4.8,6.624 C4.624,6.72 4.448,6.8 4.272,6.88 C4.08,6.976 3.888,7.072 3.68,7.168 C3.648,7.2 3.616,7.216 3.6,7.232 C3.568,7.264 3.536,7.296 3.504,7.312 L3.424,7.28 C3.392,7.28 3.376,7.296 3.36,7.328 C3.328,7.36 3.296,7.392 3.264,7.408 C3.2,7.44 3.136,7.472 3.056,7.504 C2.96,7.552 2.864,7.584 2.784,7.616 C2.688,7.648 2.624,7.68 2.56,7.696 C2.48,7.728 2.432,7.728 2.432,7.728 C2.384,7.76 2.32,7.792 2.224,7.824 C2.112,7.888 2,7.904 1.888,7.904 C1.76,7.904 1.664,7.856 1.6,7.76 C1.52,7.664 1.456,7.552 1.408,7.392 C1.36,7.328 1.344,7.248 1.344,7.184 C1.344,7.136 1.344,7.056 1.376,6.944 C1.376,6.912 1.376,6.832 1.392,6.672 C1.392,6.544 1.408,6.384 1.424,6.192 C1.424,6.016 1.44,5.824 1.456,5.632 C1.456,5.44 1.472,5.28 1.488,5.152 C1.488,5.072 1.52,4.976 1.584,4.848 C1.632,4.736 1.664,4.608 1.696,4.48 C1.712,4.384 1.744,4.304 1.808,4.272 C1.84,4.256 1.904,4.24 1.984,4.224 C2.016,4.224 2.064,4.208 2.128,4.208 C2.16,4.224 2.208,4.224 2.24,4.224 C2.272,4.256 2.32,4.272 2.352,4.304 C2.368,4.352 2.4,4.384 2.432,4.4 L2.496,4.432 C2.496,4.576 2.496,4.752 2.512,4.96 C2.512,5.184 2.512,5.392 2.528,5.616 C2.528,5.856 2.528,6.08 2.544,6.288 C2.544,6.512 2.56,6.688 2.576,6.832 C2.576,6.912 2.592,6.96 2.624,6.96 C2.64,6.992 2.656,6.992 2.688,6.992 C2.704,6.992 2.72,7.008 2.752,7.008 C2.752,7.024 2.768,7.024 2.8,7.008 C2.864,6.992 2.96,6.96 3.104,6.896 C3.232,6.848 3.392,6.784 3.568,6.704 C3.728,6.64 3.888,6.576 4.064,6.496 C4.224,6.432 4.384,6.352 4.512,6.288 L4.672,6.208 C4.72,6.192 4.784,6.176 4.864,6.16 C4.896,6.16 4.944,6.176 4.976,6.176 C5.0491321,6.20525284 5.09552268,6.22113492 5.10294884,6.22364624 L5.10399979,6.22414269 Z M4.288,3.088 C4.192,3.088 4.144,3.088 4.128,3.072 C4.096,3.072 4.064,3.088 4.064,3.088 C4.032,3.12 4.016,3.104 4.016,3.056 L3.76,3.088 C3.68,3.12 3.6,3.136 3.504,3.168 C3.408,3.2 3.312,3.232 3.248,3.248 C3.152,3.28 3.088,3.312 3.04,3.328 C2.976,3.36 2.96,3.36 2.976,3.36 C2.944,3.36 2.928,3.36 2.928,3.328 C2.912,3.328 2.896,3.312 2.88,3.312 C2.832,3.296 2.784,3.312 2.752,3.376 C2.704,3.44 2.64,3.488 2.56,3.488 C2.4,3.488 2.288,3.52 2.192,3.552 C2.08,3.616 1.984,3.648 1.92,3.68 L1.072,3.968 C1.04,3.968 1.024,3.968 1.024,3.936 C1.008,3.936 0.992,3.92 0.976,3.92 C0.88,3.92 0.8,3.92 0.752,3.936 C0.688,3.968 0.64,3.984 0.592,3.952 C0.576,3.952 0.56,3.936 0.528,3.904 C0.48,3.872 0.464,3.84 0.48,3.776 C0.48,3.744 0.544,3.68 0.64,3.6 C0.72,3.536 0.816,3.488 0.944,3.424 C1.488,3.232 2.032,3.056 2.592,2.896 C3.136,2.736 3.68,2.608 4.192,2.512 C4.24,2.496 4.288,2.496 4.336,2.496 C4.368,2.528 4.4,2.528 4.432,2.528 C4.464,2.592 4.48,2.64 4.48,2.672 C4.464,2.72 4.448,2.8 4.432,2.912 L4.368,2.976 C4.336,3.008 4.304,3.056 4.288,3.088 Z M7.664,26.912 C7.6,27.072 7.488,27.184 7.36,27.232 C7.2,27.296 7.056,27.328 6.912,27.312 L6.912,26.544 C6.896,26.32 6.944,26.064 7.04,25.776 C7.056,25.776 7.072,25.776 7.104,25.76 C7.136,25.744 7.136,25.712 7.12,25.664 C7.072,25.664 7.056,25.632 7.072,25.536 L7.072,25.328 C7.072,25.28 7.104,25.216 7.136,25.152 C7.168,25.104 7.168,24.992 7.152,24.8 C7.12,24.48 7.136,24.176 7.2,23.888 C7.248,23.616 7.296,23.344 7.328,23.056 L7.328,22.672 C7.328,22.544 7.328,22.416 7.36,22.288 C7.36,22.176 7.376,22.064 7.424,21.936 C7.456,21.84 7.504,21.696 7.536,21.536 C7.504,21.408 7.52,21.28 7.552,21.184 C7.568,21.104 7.584,21.04 7.584,20.976 C7.616,20.656 7.664,20.336 7.712,20.016 C7.744,19.712 7.808,19.456 7.872,19.232 C7.872,19.184 7.888,19.152 7.888,19.12 L7.888,19.024 L8.048,18.912 C8.048,18.864 8.064,18.8 8.064,18.736 C8.048,18.688 8.096,18.608 8.192,18.48 C8.224,18.464 8.272,18.448 8.304,18.416 C8.336,18.416 8.384,18.4 8.448,18.384 C8.512,18.416 8.56,18.432 8.608,18.464 C8.64,18.496 8.656,18.512 8.688,18.512 C8.72,18.576 8.768,18.64 8.8,18.736 L8.896,19.072 L8.944,19.184 C8.928,19.248 8.912,19.28 8.896,19.296 C8.864,19.328 8.864,19.36 8.864,19.408 C8.864,19.472 8.864,19.52 8.896,19.568 C8.912,19.632 8.88,19.728 8.8,19.84 C8.896,19.968 8.928,20.112 8.864,20.304 C8.8,20.512 8.752,20.72 8.72,20.928 C8.704,21.056 8.688,21.168 8.688,21.264 C8.672,21.376 8.672,21.488 8.672,21.6 C8.64,21.824 8.624,21.984 8.624,22.048 C8.592,22.128 8.592,22.192 8.592,22.256 C8.576,22.32 8.576,22.4 8.592,22.528 C8.592,22.672 8.576,22.8 8.528,22.912 C8.464,23.008 8.448,23.12 8.448,23.248 C8.448,23.392 8.416,23.6 8.384,23.872 C8.368,23.936 8.352,23.984 8.336,24.016 C8.304,24.08 8.272,24.128 8.272,24.176 L8.336,24.32 C8.336,24.512 8.32,24.736 8.288,25.024 C8.224,25.312 8.192,25.6 8.16,25.888 L8.112,26.048 L8.08,26.112 L8.112,26.16 C8.048,26.336 7.984,26.496 7.92,26.624 C7.824,26.768 7.744,26.864 7.664,26.912 Z M3.392,20.208 C3.424,20.24 3.456,20.272 3.472,20.304 C3.472,20.352 3.472,20.4 3.488,20.448 L3.488,20.928 L3.328,21.04 C3.344,21.104 3.36,21.136 3.392,21.136 C3.408,21.168 3.408,21.216 3.376,21.296 L3.28,21.472 L3.28,21.52 C3.264,21.552 3.264,21.568 3.264,21.568 L3.264,21.6 C3.2,21.792 3.152,21.968 3.104,22.128 C3.104,22.176 3.104,22.192 3.072,22.176 C3.024,22.176 3.008,22.192 3.04,22.224 C3.008,22.24 2.992,22.256 2.992,22.272 C2.96,22.32 2.96,22.368 2.96,22.4 C2.928,22.496 2.912,22.576 2.912,22.624 C2.896,22.688 2.88,22.768 2.848,22.848 C2.848,22.88 2.832,22.912 2.816,22.928 C2.8,22.944 2.784,22.944 2.784,22.944 L2.784,23.088 C2.784,23.136 2.768,23.184 2.736,23.216 L2.592,23.344 L2.592,23.408 C2.56,23.424 2.56,23.456 2.576,23.488 C2.576,23.536 2.56,23.6 2.528,23.664 C2.48,23.744 2.416,23.872 2.336,24.064 C2.304,24.16 2.256,24.288 2.192,24.448 C2.128,24.624 2.08,24.736 2.048,24.784 C1.984,24.896 1.952,24.976 1.92,25.04 C1.888,25.104 1.856,25.184 1.824,25.264 C1.792,25.328 1.744,25.36 1.712,25.36 C1.664,25.376 1.648,25.408 1.648,25.44 C1.632,25.472 1.616,25.504 1.616,25.52 C1.6,25.568 1.568,25.6 1.536,25.616 C1.408,25.664 1.312,25.68 1.264,25.664 C1.216,25.616 1.168,25.568 1.136,25.504 C1.104,25.472 1.072,25.424 1.072,25.36 C1.04,25.328 1.056,25.296 1.104,25.264 L1.216,25.264 L1.2,25.072 L1.328,24.864 L1.312,24.72 L1.472,24.496 L1.856,23.536 C1.856,23.52 1.856,23.504 1.888,23.488 C1.888,23.488 1.904,23.488 1.92,23.456 L1.92,23.408 C1.904,23.408 1.904,23.392 1.92,23.36 C1.984,23.152 2.064,22.944 2.16,22.72 L2.352,22.08 C2.352,22.048 2.384,21.968 2.432,21.856 C2.464,21.76 2.496,21.632 2.544,21.488 C2.576,21.36 2.608,21.2 2.656,21.04 C2.688,20.896 2.72,20.752 2.752,20.592 L2.56,20.64 C2.48,20.672 2.4,20.688 2.336,20.704 C2.256,20.736 2.192,20.752 2.128,20.768 C2.064,20.8 2.016,20.816 1.984,20.816 C1.888,20.848 1.84,20.864 1.824,20.896 C1.792,20.928 1.776,20.96 1.76,20.96 C1.712,20.992 1.632,21.008 1.52,21.04 C1.392,21.072 1.28,21.12 1.168,21.184 C1.12,21.2 1.072,21.2 1.04,21.2 C0.992,21.2 0.96,21.2 0.96,21.184 C0.864,21.104 0.832,21.008 0.896,20.896 C0.928,20.8 1.008,20.72 1.104,20.672 C1.104,20.672 1.136,20.656 1.168,20.656 C1.184,20.656 1.2,20.656 1.232,20.624 C1.344,20.576 1.456,20.528 1.584,20.496 C1.68,20.464 1.792,20.432 1.888,20.368 L2.08,20.288 C2.224,20.24 2.368,20.192 2.528,20.144 C2.656,20.112 2.832,20.08 3.056,20.048 C3.136,20.032 3.216,20.048 3.28,20.08 C3.328,20.144 3.36,20.176 3.392,20.208 Z M6,24.448 C5.92,24.448 5.856,24.432 5.808,24.432 C5.744,24.448 5.664,24.432 5.584,24.368 L5.424,24.32 C5.408,24.32 5.392,24.32 5.392,24.304 L5.28,24.304 C5.232,24.288 5.184,24.272 5.12,24.272 C5.04,24.272 4.96,24.256 4.896,24.192 C4.784,24.128 4.672,24.064 4.576,23.984 C4.464,23.92 4.368,23.856 4.304,23.792 C4.288,23.776 4.272,23.76 4.24,23.744 C4.208,23.744 4.176,23.744 4.144,23.728 L4.096,23.664 C4.032,23.664 3.968,23.616 3.872,23.536 C3.776,23.472 3.696,23.408 3.648,23.36 L3.568,23.344 C3.472,23.248 3.44,23.184 3.472,23.136 C3.472,23.104 3.456,23.04 3.408,22.96 C3.392,22.928 3.392,22.912 3.392,22.88 C3.376,22.864 3.392,22.816 3.456,22.736 C3.456,22.704 3.488,22.672 3.52,22.672 C3.536,22.688 3.536,22.688 3.52,22.656 C3.552,22.656 3.584,22.64 3.616,22.624 C3.632,22.624 3.664,22.624 3.712,22.592 C3.728,22.624 3.76,22.624 3.808,22.608 C3.84,22.608 3.872,22.608 3.936,22.624 L4.112,22.72 C4.144,22.736 4.176,22.736 4.208,22.736 C4.208,22.736 4.24,22.752 4.304,22.752 C4.384,22.816 4.48,22.864 4.592,22.896 C4.688,22.96 4.768,23.008 4.832,23.04 C4.848,23.072 4.896,23.104 4.96,23.136 C5.024,23.184 5.072,23.2 5.12,23.168 C5.152,23.168 5.184,23.2 5.216,23.248 C5.248,23.312 5.296,23.36 5.36,23.376 C5.36,23.408 5.392,23.424 5.456,23.44 C5.504,23.472 5.552,23.488 5.584,23.52 C5.568,23.52 5.552,23.536 5.552,23.536 C5.52,23.568 5.52,23.584 5.536,23.584 L5.648,23.584 C5.68,23.616 5.696,23.664 5.728,23.696 C5.792,23.824 5.872,23.888 5.968,23.904 C5.984,23.968 6,24 6,24.016 C6,24.048 6,24.08 6.016,24.096 C6.016,24.112 6.032,24.112 6.064,24.112 C6.064,24.112 6.08,24.112 6.096,24.096 L6.096,24.208 C6.064,24.272 6.048,24.304 6.032,24.32 C6.016,24.352 6.016,24.384 6.016,24.384 C6.016,24.416 6,24.432 6,24.448 Z M11.712,22.176 C11.744,22.272 11.744,22.304 11.696,22.288 C11.632,22.288 11.584,22.304 11.552,22.336 C11.504,22.384 11.488,22.416 11.52,22.448 C11.52,22.48 11.504,22.496 11.472,22.496 C11.408,22.56 11.28,22.64 11.12,22.704 C10.928,22.8 10.736,22.88 10.544,22.944 C10.32,23.024 10.112,23.088 9.904,23.12 C9.68,23.184 9.504,23.2 9.344,23.184 C9.168,23.184 9.056,23.152 9.024,23.088 C8.96,23.056 8.944,23.008 8.944,22.944 C8.944,22.864 8.976,22.832 9.04,22.832 C9.088,22.848 9.136,22.832 9.184,22.784 C9.2,22.784 9.232,22.768 9.264,22.736 C9.296,22.72 9.328,22.704 9.376,22.704 C9.568,22.704 9.824,22.64 10.176,22.512 C10.512,22.416 10.832,22.272 11.152,22.08 C11.232,22.048 11.328,22.016 11.424,22.016 L11.632,22.016 L11.712,22.176 Z M6.72,45.232 C6.656,45.392 6.544,45.504 6.416,45.552 C6.256,45.616 6.112,45.648 5.968,45.632 L5.968,44.864 C5.952,44.64 6,44.384 6.096,44.096 C6.112,44.096 6.128,44.096 6.16,44.08 C6.192,44.064 6.192,44.032 6.176,43.984 C6.128,43.984 6.112,43.952 6.128,43.856 L6.128,43.648 C6.128,43.6 6.16,43.536 6.192,43.472 C6.224,43.424 6.224,43.312 6.208,43.12 C6.176,42.8 6.192,42.496 6.256,42.208 C6.304,41.936 6.352,41.664 6.384,41.376 L6.384,40.992 C6.384,40.864 6.384,40.736 6.416,40.608 C6.416,40.496 6.432,40.384 6.48,40.256 C6.512,40.16 6.56,40.016 6.592,39.856 C6.56,39.728 6.576,39.6 6.608,39.504 C6.624,39.424 6.64,39.36 6.64,39.296 C6.672,38.976 6.72,38.656 6.768,38.336 C6.8,38.032 6.864,37.776 6.928,37.552 C6.928,37.504 6.944,37.472 6.944,37.44 L6.944,37.344 L7.104,37.232 C7.104,37.184 7.12,37.12 7.12,37.056 C7.104,37.008 7.152,36.928 7.248,36.8 C7.28,36.784 7.328,36.768 7.36,36.736 C7.392,36.736 7.44,36.72 7.504,36.704 C7.568,36.736 7.616,36.752 7.664,36.784 C7.696,36.816 7.712,36.832 7.744,36.832 C7.776,36.896 7.824,36.96 7.856,37.056 L7.952,37.392 L8,37.504 C7.984,37.568 7.968,37.6 7.952,37.616 C7.92,37.648 7.92,37.68 7.92,37.728 C7.92,37.792 7.92,37.84 7.952,37.888 C7.968,37.952 7.936,38.048 7.856,38.16 C7.952,38.288 7.984,38.432 7.92,38.624 C7.856,38.832 7.808,39.04 7.776,39.248 C7.76,39.376 7.744,39.488 7.744,39.584 C7.728,39.696 7.728,39.808 7.728,39.92 C7.696,40.144 7.68,40.304 7.68,40.368 C7.648,40.448 7.648,40.512 7.648,40.576 C7.632,40.64 7.632,40.72 7.648,40.848 C7.648,40.992 7.632,41.12 7.584,41.232 C7.52,41.328 7.504,41.44 7.504,41.568 C7.504,41.712 7.472,41.92 7.44,42.192 C7.424,42.256 7.408,42.304 7.392,42.336 C7.36,42.4 7.328,42.448 7.328,42.496 L7.392,42.64 C7.392,42.832 7.376,43.056 7.344,43.344 C7.28,43.632 7.248,43.92 7.216,44.208 L7.168,44.368 L7.136,44.432 L7.168,44.48 C7.104,44.656 7.04,44.816 6.976,44.944 C6.88,45.088 6.8,45.184 6.72,45.232 Z M0.912,42.528 C0.912,42.496 0.896,42.432 0.896,42.352 C0.88,42.288 0.88,42.24 0.88,42.192 L0.944,42.16 C0.96,42.16 0.976,42.144 0.992,42.128 C0.992,42.128 0.976,42.112 0.96,42.112 C0.912,42.08 0.896,42.064 0.928,42.064 C0.944,42.096 0.96,42.08 0.96,42.032 C0.96,42 0.944,41.952 0.928,41.904 C0.896,41.872 0.88,41.84 0.88,41.792 C0.88,41.712 0.896,41.648 0.928,41.584 C0.96,41.536 0.976,41.472 0.976,41.376 L0.976,41.216 C0.928,41.184 0.912,41.168 0.944,41.168 C0.96,41.184 0.976,41.152 0.976,41.056 C1.008,40.848 1.072,40.64 1.136,40.432 C1.2,40.24 1.264,40.032 1.344,39.84 C1.488,39.424 1.776,39.152 2.192,38.992 C2.352,38.944 2.464,38.96 2.512,39.024 C2.528,39.056 2.512,39.072 2.448,39.104 C2.384,39.136 2.288,39.216 2.176,39.312 C2.112,39.36 2.064,39.44 2.032,39.552 C1.984,39.68 1.936,39.808 1.904,39.968 C2.08,39.92 2.224,39.904 2.32,39.92 C2.432,39.952 2.512,40.016 2.544,40.096 C2.56,40.192 2.624,40.24 2.72,40.24 C2.784,40.24 2.88,40.336 3.008,40.528 C3.12,40.736 3.168,41.056 3.168,41.488 C3.136,42.272 2.896,42.896 2.432,43.344 C2.4,43.376 2.368,43.392 2.32,43.424 C2.256,43.472 2.208,43.488 2.144,43.488 C2.048,43.488 1.984,43.504 1.936,43.536 C1.872,43.568 1.808,43.584 1.728,43.584 C1.568,43.584 1.424,43.536 1.328,43.44 C1.216,43.36 1.152,43.296 1.136,43.264 C1.072,43.152 1.04,43.024 1.008,42.896 C0.96,42.784 0.928,42.656 0.912,42.528 Z M2.16,40.592 C2.064,40.576 1.936,40.592 1.776,40.656 C1.712,41.056 1.696,41.44 1.696,41.824 C1.696,42.208 1.744,42.496 1.856,42.656 C1.872,42.72 1.888,42.752 1.92,42.768 C1.936,42.8 1.968,42.8 2.032,42.8 C2.096,42.8 2.176,42.768 2.24,42.704 C2.368,42.576 2.464,42.4 2.56,42.176 C2.624,41.952 2.672,41.744 2.672,41.536 C2.672,41.248 2.64,41.04 2.576,40.88 C2.512,40.752 2.368,40.656 2.16,40.592 Z M7.84,63.072 C7.776,63.232 7.664,63.344 7.536,63.392 C7.376,63.456 7.232,63.488 7.088,63.472 L7.088,62.704 C7.072,62.48 7.12,62.224 7.216,61.936 C7.232,61.936 7.248,61.936 7.28,61.92 C7.312,61.904 7.312,61.872 7.296,61.824 C7.248,61.824 7.232,61.792 7.248,61.696 L7.248,61.488 C7.248,61.44 7.28,61.376 7.312,61.312 C7.344,61.264 7.344,61.152 7.328,60.96 C7.296,60.64 7.312,60.336 7.376,60.048 C7.424,59.776 7.472,59.504 7.504,59.216 L7.504,58.832 C7.504,58.704 7.504,58.576 7.536,58.448 C7.536,58.384 7.536,58.32 7.568,58.24 C7.584,58.176 7.6,58.112 7.632,58.032 C7.456,58.08 7.264,58.128 7.04,58.192 C6.8,58.272 6.576,58.336 6.352,58.4 C6.128,58.48 5.92,58.544 5.728,58.608 C5.52,58.688 5.36,58.752 5.248,58.784 C5.216,58.816 5.184,58.848 5.12,58.864 C5.04,58.896 4.976,58.912 4.944,58.912 C4.768,58.912 4.656,58.896 4.624,58.832 C4.56,58.784 4.544,58.736 4.544,58.672 C4.544,58.592 4.576,58.56 4.64,58.56 C4.688,58.576 4.736,58.56 4.784,58.512 C4.8,58.512 4.816,58.48 4.848,58.432 C4.864,58.4 4.896,58.384 4.944,58.352 C5.008,58.32 5.136,58.272 5.344,58.192 L6.048,57.952 C6.304,57.872 6.576,57.792 6.864,57.696 C7.136,57.632 7.376,57.568 7.584,57.504 C7.6,57.504 7.616,57.504 7.648,57.488 L7.696,57.488 C7.696,57.408 7.712,57.344 7.744,57.28 C7.744,57.232 7.76,57.184 7.76,57.136 C7.792,56.816 7.84,56.496 7.888,56.176 C7.92,55.872 7.984,55.616 8.048,55.392 C8.048,55.344 8.064,55.312 8.064,55.28 L8.064,55.184 L8.224,55.072 C8.224,55.024 8.24,54.96 8.24,54.896 C8.224,54.848 8.272,54.768 8.368,54.64 C8.4,54.624 8.448,54.608 8.48,54.576 C8.512,54.576 8.56,54.56 8.624,54.544 C8.688,54.576 8.736,54.592 8.784,54.624 C8.816,54.656 8.832,54.672 8.864,54.672 C8.896,54.736 8.944,54.8 8.976,54.896 L9.072,55.232 L9.12,55.344 C9.104,55.408 9.088,55.44 9.072,55.456 C9.04,55.488 9.04,55.52 9.04,55.568 C9.04,55.632 9.04,55.68 9.072,55.728 C9.088,55.792 9.056,55.888 8.976,56 C9.072,56.128 9.104,56.272 9.04,56.464 C8.976,56.672 8.928,56.88 8.896,57.088 C8.88,57.216 8.864,57.328 8.864,57.424 C8.848,57.536 8.848,57.648 8.848,57.76 C8.816,57.984 8.8,58.144 8.8,58.208 C8.768,58.288 8.768,58.352 8.768,58.416 C8.752,58.48 8.752,58.56 8.768,58.688 C8.768,58.832 8.752,58.96 8.704,59.072 C8.64,59.168 8.624,59.28 8.624,59.408 C8.624,59.552 8.592,59.76 8.56,60.032 C8.544,60.096 8.528,60.144 8.512,60.176 C8.48,60.24 8.448,60.288 8.448,60.336 L8.512,60.48 C8.512,60.672 8.496,60.896 8.464,61.184 C8.4,61.472 8.368,61.76 8.336,62.048 L8.288,62.208 L8.256,62.272 L8.288,62.32 C8.224,62.496 8.16,62.656 8.096,62.784 C8,62.928 7.92,63.024 7.84,63.072 Z M2.224,60.512 C2.24,60.672 2.256,60.768 2.288,60.768 C2.304,60.768 2.336,60.784 2.384,60.784 C2.416,60.8 2.432,60.8 2.464,60.8 C2.528,60.8 2.64,60.768 2.816,60.72 C2.976,60.688 3.152,60.624 3.36,60.56 C3.552,60.512 3.76,60.448 3.968,60.384 C4.16,60.32 4.32,60.272 4.464,60.208 C4.496,60.192 4.56,60.176 4.624,60.144 C4.688,60.128 4.752,60.112 4.832,60.112 C4.848,60.112 4.896,60.128 4.96,60.144 C5.024,60.176 5.072,60.192 5.072,60.208 C5.072,60.24 5.04,60.256 5.008,60.272 C4.944,60.304 4.944,60.304 5.008,60.304 C4.944,60.368 4.912,60.448 4.912,60.512 C4.816,60.56 4.752,60.592 4.704,60.608 C4.512,60.704 4.336,60.784 4.144,60.848 C3.936,60.928 3.728,61.008 3.504,61.072 C3.456,61.104 3.424,61.136 3.408,61.152 C3.376,61.184 3.344,61.2 3.312,61.216 L3.216,61.168 C3.184,61.168 3.168,61.184 3.136,61.216 C3.104,61.248 3.072,61.28 3.04,61.296 C2.976,61.328 2.896,61.36 2.8,61.392 C2.672,61.424 2.56,61.456 2.448,61.472 C2.32,61.504 2.224,61.52 2.144,61.52 C2.048,61.552 1.984,61.552 1.984,61.552 C1.92,61.584 1.84,61.616 1.744,61.648 C1.632,61.696 1.52,61.712 1.408,61.68 C1.28,61.664 1.2,61.616 1.168,61.52 C1.12,61.44 1.072,61.312 1.024,61.136 C0.976,61.056 0.96,60.976 0.96,60.912 C0.96,60.848 0.96,60.768 0.992,60.64 C0.992,60.608 0.992,60.48 1.024,60.256 C1.04,60.032 1.056,59.792 1.088,59.504 C1.104,59.232 1.136,58.944 1.168,58.656 C1.184,58.368 1.2,58.144 1.232,57.984 C1.232,57.888 1.28,57.776 1.344,57.648 C1.392,57.52 1.424,57.392 1.456,57.232 C1.472,57.12 1.504,57.04 1.568,57.008 C1.6,56.976 1.664,56.96 1.744,56.944 C1.792,56.944 1.84,56.928 1.904,56.928 C1.936,56.944 1.984,56.944 2.016,56.944 C2.048,56.976 2.08,57.024 2.112,57.056 C2.128,57.104 2.16,57.136 2.192,57.152 L2.256,57.184 L2.256,57.872 C2.24,58.176 2.224,58.496 2.224,58.816 C2.208,59.168 2.208,59.488 2.208,59.792 C2.208,60.112 2.208,60.352 2.224,60.512 Z" id="디-자-이-너" fill="#FFFFFF"></path>
    </g>
</svg>